<svg width="320" height="49" viewBox="0 0 320 49" fill="none" xmlns="http://www.w3.org/2000/svg">
<path d="M33.7366 31.5313C33.7366 31.5282 33.7366 31.5251 33.7335 31.522C33.5809 30.8928 33.3784 30.3041 33.1417 29.7496C29.5627 20.8849 19.3461 21.3209 19.3461 21.3209L19.3493 25.3827L19.8881 25.4107C21.4237 25.4948 22.9469 25.8436 24.3112 26.5507C27.5288 28.2171 28.9491 31.0734 28.9491 34.6399C28.9491 39.6236 26.0212 42.6792 22.0342 43.8566L14.3842 26.722C14.3842 26.722 8.50657 40.3525 6.73112 44.3581H4.87781V40.9256V24.9279V20.6201V10.6496V4.31403H17.7482C24.0682 4.31403 27.2329 7.83999 27.292 12.4157C27.3419 16.0756 25.7377 18.907 21.3895 20.2276V20.455C23.6352 20.6201 25.8281 21.2773 27.0927 21.9844C30.005 20.2619 32.4097 16.6861 32.4097 12.0512C32.4097 5.15191 27.5007 0 17.742 0H0V48.6815H4.82174H9.5002C10.1232 47.2736 13.5868 37.9198 14.3873 36.1132L19.1717 48.6566C20.9222 48.5787 22.598 48.314 24.1492 47.8561C29.9739 46.1367 34.0855 41.723 34.0855 34.5402C34.0855 33.4438 33.9578 32.4471 33.7366 31.5313Z" fill="black"/>
<path d="M43.1655 9.05957H50.1681C51.485 9.05957 52.4881 9.37333 53.1726 9.9961C53.8572 10.6236 54.1995 11.5174 54.1995 12.6821C54.1995 13.3524 54.0711 13.9324 53.8097 14.422C53.5482 14.907 53.1917 15.2825 52.74 15.544C53.3866 15.7769 53.8667 16.1192 54.19 16.5613C54.5133 17.0082 54.6749 17.6262 54.6749 18.4249C54.6749 19.6895 54.3041 20.6545 53.5625 21.3201C52.8208 21.9856 51.756 22.3184 50.3726 22.3184H43.1655V9.05957ZM49.1793 14.4553C50.2775 14.4553 50.8242 13.9609 50.8242 12.9721C50.8242 12.4492 50.6863 12.0641 50.4106 11.8169C50.1349 11.5697 49.669 11.4461 49.0129 11.4461H46.479V14.4506H49.1793V14.4553ZM49.5073 19.9557C50.1253 19.9557 50.577 19.8273 50.867 19.5754C51.157 19.3234 51.2996 18.886 51.2996 18.268C51.2996 17.7451 51.1522 17.3648 50.8575 17.1128C50.5627 16.8656 50.073 16.742 49.3837 16.742H46.479V19.9557H49.5073Z" fill="black"/>
<path d="M56.3638 9.05957H66.1427V11.6125H59.6773V14.3935H65.382V16.9892H59.6773V19.7703H66.1427V22.3231H56.3638V9.05957Z" fill="black"/>
<path d="M67.7311 9.05957H74.3629C75.8841 9.05957 77.0298 9.46366 77.7905 10.2623C78.5511 11.0657 78.9314 12.1829 78.9314 13.6091C78.9314 14.5029 78.708 15.2825 78.2611 15.9576C77.8142 16.6327 77.1915 17.1318 76.3976 17.4598C76.5782 17.612 76.7256 17.7736 76.8397 17.9542C76.9585 18.1301 77.0917 18.3916 77.2438 18.7387L78.8078 22.3231H75.3469L73.8637 18.9478C73.7401 18.6483 73.5832 18.4344 73.3883 18.3108C73.1981 18.1872 72.9224 18.1254 72.5659 18.1254H71.0398V22.3279H67.7263V9.05957H67.7311ZM73.4976 15.5678C74.1584 15.5678 74.6624 15.4014 75.0189 15.0733C75.3755 14.7453 75.5561 14.2557 75.5561 13.6091C75.5561 12.278 74.9191 11.6125 73.6403 11.6125H71.0446V15.5678H73.4976Z" fill="black"/>
<path d="M82.0123 20.7966C80.8096 19.6414 80.2106 18.0013 80.2106 15.8762C80.2106 13.6371 80.8286 11.9114 82.0646 10.6897C83.3006 9.46789 85.0929 8.85938 87.4414 8.85938C88.9912 8.85938 90.346 9.04954 91.4965 9.43462V12.2775C90.4554 11.8924 89.1813 11.7023 87.6886 11.7023C86.2624 11.7023 85.2213 12.0398 84.57 12.7101C83.9187 13.3804 83.5907 14.4405 83.5907 15.881C83.5907 17.1836 83.8949 18.1486 84.5082 18.7762C85.1167 19.3989 86.0342 19.7127 87.256 19.7127C88.0499 19.7127 88.7915 19.6034 89.4808 19.3847V16.8746H86.6189V14.7923H92.2619V21.3623C91.7247 21.7046 91.0401 21.9851 90.2034 22.2085C89.3667 22.4272 88.3779 22.5366 87.2369 22.5366C84.9503 22.5271 83.2103 21.9518 82.0123 20.7966Z" fill="black"/>
<path d="M95.7025 22.3315C94.9418 22.2032 94.2858 22.013 93.7343 21.7658V18.9467C94.3523 19.2224 95.0226 19.4363 95.7548 19.5932C96.4821 19.7501 97.1762 19.8309 97.8322 19.8309C98.726 19.8309 99.3535 19.7501 99.7243 19.5932C100.095 19.4363 100.281 19.1083 100.281 18.6139C100.281 18.2716 100.185 18.0006 99.9906 17.801C99.8004 17.6013 99.5056 17.4302 99.1158 17.2875C98.726 17.1449 98.0842 16.9405 97.1905 16.679C96.2729 16.4033 95.5456 16.0991 95.0179 15.7615C94.4902 15.424 94.1099 15.0199 93.8769 14.5493C93.644 14.0739 93.5251 13.4844 93.5251 12.7665C93.5251 11.4877 93.9815 10.5179 94.8943 9.85234C95.8071 9.18678 97.1429 8.854 98.8971 8.854C99.6245 8.854 100.357 8.91105 101.089 9.0204C101.821 9.12974 102.429 9.2676 102.909 9.43399V12.2769C101.769 11.8252 100.594 11.597 99.3868 11.597C98.5501 11.597 97.9226 11.6779 97.5137 11.8347C97.1001 11.9916 96.8957 12.3006 96.8957 12.7523C96.8957 13.0422 96.9765 13.2704 97.1429 13.4416C97.3093 13.6127 97.5708 13.7649 97.9368 13.8932C98.2981 14.0263 98.8734 14.1927 99.6578 14.3971C100.713 14.6871 101.536 15.0294 102.12 15.424C102.705 15.8233 103.109 16.2797 103.337 16.7931C103.566 17.3066 103.675 17.9151 103.675 18.6139C103.675 19.8214 103.209 20.777 102.272 21.4758C101.341 22.1746 99.9668 22.5264 98.1555 22.5264C97.2855 22.5264 96.4631 22.4599 95.7025 22.3315Z" fill="black"/>
<path d="M105.368 9.05957H111.895C113.416 9.05957 114.576 9.49694 115.365 10.3669C116.154 11.2369 116.549 12.3826 116.549 13.7945C116.549 14.7025 116.359 15.5012 115.974 16.2048C115.589 16.9036 115.037 17.4503 114.315 17.8402C113.592 18.23 112.76 18.4249 111.814 18.4249H108.686V22.3184H105.372V9.05957H105.368ZM111.072 15.8768C111.757 15.8768 112.28 15.6866 112.636 15.311C112.993 14.9355 113.174 14.4221 113.174 13.7755C113.174 13.0767 113.007 12.5395 112.679 12.1687C112.351 11.7979 111.847 11.6125 111.177 11.6125H108.686V15.8768H111.072Z" fill="black"/>
<path d="M118.588 20.8578C117.476 19.7454 116.92 18.0434 116.92 15.752C116.92 13.3513 117.466 11.597 118.564 10.4989C119.663 9.40071 121.317 8.854 123.528 8.854C125.724 8.854 127.374 9.40546 128.481 10.4989C129.584 11.597 130.14 13.3465 130.14 15.752C130.14 18.0434 129.584 19.7454 128.472 20.8578C127.359 21.9702 125.714 22.5264 123.532 22.5264C121.346 22.5264 119.701 21.9702 118.588 20.8578ZM125.971 18.747C126.485 18.11 126.741 17.1116 126.741 15.752C126.741 14.283 126.489 13.2419 125.981 12.6239C125.472 12.0059 124.654 11.6969 123.532 11.6969C122.391 11.6969 121.569 12.0059 121.06 12.6239C120.552 13.2419 120.3 14.283 120.3 15.752C120.3 17.1116 120.556 18.11 121.07 18.747C121.583 19.3841 122.406 19.7026 123.532 19.7026C124.64 19.7073 125.458 19.3841 125.971 18.747Z" fill="black"/>
<path d="M131.829 9.05957H138.461C139.982 9.05957 141.128 9.46366 141.888 10.2623C142.649 11.0657 143.029 12.1829 143.029 13.6091C143.029 14.5029 142.806 15.2825 142.359 15.9576C141.912 16.6327 141.289 17.1318 140.495 17.4598C140.676 17.612 140.823 17.7736 140.937 17.9542C141.056 18.1301 141.189 18.3916 141.342 18.7387L142.906 22.3231H139.445L137.961 18.9478C137.838 18.6483 137.681 18.4344 137.486 18.3108C137.296 18.1872 137.02 18.1254 136.664 18.1254H135.138V22.3279H131.824V9.05957H131.829ZM137.595 15.5678C138.256 15.5678 138.76 15.4014 139.117 15.0733C139.473 14.7453 139.654 14.2557 139.654 13.6091C139.654 12.278 139.017 11.6125 137.738 11.6125H135.142V15.5678H137.595Z" fill="black"/>
<path d="M147.064 11.6125H143.171V9.05957H154.267V11.6125H150.373V22.3184H147.06V11.6125H147.064Z" fill="black"/>
<path d="M155.551 9.05957H165.187V11.6125H158.864V14.3935H164.426V16.9892H158.864V22.3231H155.551V9.05957Z" fill="black"/>
<path d="M167.995 21.1571C166.902 20.2443 166.36 18.9512 166.36 17.2779V9.06299H169.673V16.9688C169.673 17.8864 169.911 18.5757 170.382 19.0273C170.857 19.4789 171.546 19.7071 172.45 19.7071C173.353 19.7071 174.047 19.4789 174.518 19.0273C174.993 18.5757 175.226 17.8864 175.226 16.9688V9.06299H178.54V17.2779C178.54 18.9512 177.993 20.2443 176.904 21.1571C175.811 22.0699 174.328 22.5262 172.445 22.5262C170.572 22.5262 169.084 22.0699 167.995 21.1571Z" fill="black"/>
<path d="M180.547 9.05957H183.86V14.3127H189.051V9.05957H192.365V22.3184H189.051V17.0653H183.86V22.3184H180.547V9.05957Z" fill="black"/>
<path d="M194.461 9.05957H201.093C202.614 9.05957 203.76 9.46366 204.52 10.2623C205.281 11.0657 205.661 12.1829 205.661 13.6091C205.661 14.5029 205.438 15.2825 204.991 15.9576C204.544 16.6327 203.921 17.1318 203.127 17.4598C203.308 17.612 203.455 17.7736 203.57 17.9542C203.688 18.1301 203.822 18.3916 203.974 18.7387L205.538 22.3231H202.077L200.594 18.9478C200.47 18.6483 200.313 18.4344 200.118 18.3108C199.928 18.1872 199.652 18.1254 199.296 18.1254H197.77V22.3279H194.456V9.05957H194.461ZM200.228 15.5678C200.888 15.5678 201.392 15.4014 201.749 15.0733C202.105 14.7453 202.286 14.2557 202.286 13.6091C202.286 12.278 201.649 11.6125 200.37 11.6125H197.774V15.5678H200.228Z" fill="black"/>
<path d="M207.354 9.05957H217.133V11.6125H210.667V14.3935H216.372V16.9892H210.667V19.7703H217.133V22.3231H207.354V9.05957Z" fill="black"/>
<path d="M218.719 9.05957H225.351C226.873 9.05957 228.018 9.46366 228.779 10.2623C229.54 11.0657 229.92 12.1829 229.92 13.6091C229.92 14.5029 229.696 15.2825 229.25 15.9576C228.803 16.6327 228.18 17.1318 227.386 17.4598C227.567 17.612 227.714 17.7736 227.828 17.9542C227.947 18.1301 228.08 18.3916 228.232 18.7387L229.796 22.3231H226.335L224.852 18.9478C224.729 18.6483 224.572 18.4344 224.377 18.3108C224.187 18.1872 223.911 18.1254 223.554 18.1254H222.028V22.3279H218.715V9.05957H218.719ZM224.481 15.5678C225.142 15.5678 225.646 15.4014 226.003 15.0733C226.359 14.7453 226.54 14.2557 226.54 13.6091C226.54 12.278 225.903 11.6125 224.624 11.6125H222.028V15.5678H224.481Z" fill="black"/>
<path d="M243.631 9.05957L238.606 22.3184H236.629L231.585 9.05957H233.334L237.599 20.6117L241.882 9.05957H243.631Z" fill="black"/>
<path d="M246.104 9.05957H255.06V10.4002H247.791V15.0306H254.318V16.3474H247.791V21.0015H255.06V22.3184H246.104V9.05957Z" fill="black"/>
<path d="M266.737 15.6194C266.257 16.2565 265.558 16.6891 264.636 16.9078C264.897 17.0599 265.097 17.2358 265.235 17.4307C265.373 17.6304 265.529 17.9299 265.71 18.3244L267.44 22.3178H265.71L264.022 18.4671C263.832 18.0297 263.599 17.7255 263.333 17.5591C263.067 17.3927 262.629 17.3119 262.026 17.3119H259.226V22.313H257.538V9.0542H263.366C264.754 9.0542 265.781 9.41551 266.456 10.1334C267.127 10.856 267.464 11.8686 267.464 13.1711C267.455 14.1695 267.217 14.9824 266.737 15.6194ZM265.767 13.1807C265.767 11.3266 264.883 10.3996 263.11 10.3996H259.216V15.9998H262.881C264.807 15.9998 265.767 15.0585 265.767 13.1807Z" fill="black"/>
<path d="M276.392 22.3218H269.927V9.06299H276.064C278.589 9.06299 279.853 10.2325 279.853 12.5619C279.853 13.275 279.711 13.8788 279.421 14.3637C279.131 14.8486 278.722 15.2241 278.185 15.4856C279.639 15.8421 280.367 16.8595 280.367 18.5329C280.367 21.0573 279.04 22.3218 276.392 22.3218ZM277.7 10.9123C277.324 10.5415 276.639 10.3561 275.651 10.3561H271.615V14.8628H275.96C277.495 14.8628 278.265 14.1355 278.265 12.6808C278.265 11.8726 278.08 11.2831 277.7 10.9123ZM278.061 20.4487C278.475 20.0494 278.679 19.3934 278.679 18.4711C278.679 17.6772 278.465 17.0877 278.042 16.7121C277.614 16.3366 276.882 16.1464 275.841 16.1464H271.619V21.0477H276.107C276.996 21.043 277.647 20.8433 278.061 20.4487Z" fill="black"/>
<path d="M282.839 22.3218H281.089L286.133 9.06299H288.111L293.136 22.3218H291.405L290.003 18.6755H284.236L282.839 22.3218ZM284.526 17.3397H289.694L287.098 10.5224L284.526 17.3397Z" fill="black"/>
<path d="M297.289 22.3218H295.602V9.06299H297.128L304.686 19.7309V9.06299H306.374V22.3218H304.829L297.294 11.6777V22.3218H297.289Z" fill="black"/>
<path d="M318.683 20.7578C317.803 21.7989 316.391 22.3218 314.442 22.3218H309.251V9.06299H314.442C316.377 9.06299 317.789 9.58592 318.673 10.6366C319.557 11.6872 320 13.3986 320 15.7756C320.004 18.0527 319.562 19.7119 318.683 20.7578ZM317.903 12.5096C317.627 11.7347 317.195 11.188 316.596 10.8743C315.997 10.5605 315.179 10.3989 314.133 10.3989H310.943V21.0002H314.133C315.122 21.0002 315.916 20.8576 316.51 20.5676C317.109 20.2776 317.556 19.7594 317.86 19.0035C318.165 18.2477 318.312 17.1733 318.312 15.7708C318.312 14.3684 318.179 13.2845 317.903 12.5096Z" fill="black"/>
<path d="M48.8287 43.1016H47.1411V31.1786H42.7341V29.8428H53.2357V31.1834H48.8287V43.1016Z" fill="black"/>
<path d="M55.293 29.8428H56.9806V43.1016H55.293V29.8428Z" fill="black"/>
<path d="M69.0722 36.4032C68.5921 37.0403 67.8932 37.4729 66.971 37.6916C67.2324 37.8437 67.4321 38.0196 67.57 38.2145C67.7078 38.4142 67.8647 38.7137 68.0454 39.1083L69.7758 43.1016H68.0454L66.3577 39.2509C66.1676 38.8135 65.9346 38.5093 65.6684 38.3429C65.4022 38.1765 64.9648 38.0957 64.361 38.0957H61.561V43.0968H59.8733V29.8428H65.7017C67.0898 29.8428 68.1167 30.2041 68.7917 30.9219C69.4621 31.6445 69.7996 32.6571 69.7996 33.9597C69.7901 34.9485 69.5524 35.7615 69.0722 36.4032ZM68.1024 33.9597C68.1024 32.1057 67.2182 31.1786 65.4449 31.1786H61.5514V36.7788H65.2168C67.1421 36.7836 68.1024 35.8423 68.1024 33.9597Z" fill="black"/>
<path d="M82.2774 41.6624C81.2839 42.7606 79.7388 43.3073 77.6566 43.3073C75.5696 43.3073 74.0293 42.7606 73.0357 41.6624C72.0421 40.5643 71.543 38.8338 71.543 36.4711C71.543 34.1084 72.0421 32.3827 73.0357 31.2845C74.0293 30.1864 75.5696 29.6396 77.6566 29.6396C79.7436 29.6396 81.2839 30.1911 82.2774 31.2845C83.271 32.3827 83.7702 34.1131 83.7702 36.4711C83.7702 38.8386 83.271 40.5643 82.2774 41.6624ZM81.6071 33.3145C81.2934 32.5253 80.8132 31.9548 80.1667 31.603C79.5201 31.2512 78.6834 31.0801 77.6566 31.0801C76.6297 31.0801 75.7883 31.256 75.1465 31.603C74.4999 31.9548 74.0198 32.5205 73.706 33.3145C73.3875 34.1036 73.2306 35.159 73.2306 36.4759C73.2306 37.7927 73.3875 38.8481 73.706 39.6373C74.0198 40.4264 74.4999 40.9969 75.1465 41.3439C75.793 41.6957 76.6297 41.8669 77.6566 41.8669C78.6882 41.8669 79.5249 41.691 80.1667 41.3439C80.8132 40.9921 81.2934 40.4264 81.6071 39.6373C81.9256 38.8481 82.0825 37.7927 82.0825 36.4759C82.0825 35.159 81.9256 34.1036 81.6071 33.3145Z" fill="black"/>
<path d="M94.9943 41.7847V43.1016H86.2422V29.8428H87.9298V41.7847H94.9943Z" fill="black"/>
<path d="M171.547 5.37402H169.118V7.6179H171.547V5.37402Z" fill="black"/>
<path d="M175.789 5.37402H173.359V7.6179H175.789V5.37402Z" fill="black"/>
</svg>
